# xmcd
#
# Track frame offsets:
#	150
#	27540
#	57534
#	82062
#	108320
#	122792
#	134135
#	160845
#	180346
#	193441
#	208100
#	234694
#	256251
#	281443
#	303521
#	325187
#
# Disc length: 4795 seconds
#
# Revision: 1
# Processed by: cddbd v1.4PL0 Copyright (c) Steve Scherf et al.
# Submitted via: audiograbber 1.80
#
DISCID=f512b910
DTITLE=Leonard Cohen - Collection 2000
DYEAR=1900
DGENRE=
TTITLE0=Dance me to the end of love
TTITLE1=The future
TTITLE2=Everybody knows
TTITLE3=First we take Manhattan
TTITLE4=Lover,lover,lover
TTITLE5=Who by fire?
TTITLE6=Closing time
TTITLE7=I'm your man
TTITLE8=There is a war
TTITLE9=A singer must die
TTITLE10=Take this waltz
TTITLE11=Ain'n nocure for love
TTITLE12=Tower of song
TTITLE13=Never any good
TTITLE14=heart with no companion
TTITLE15=Waiting for a miracle
EXTD=
EXTT0=
EXTT1=
EXTT2=
EXTT3=
EXTT4=
EXTT5=
EXTT6=
EXTT7=
EXTT8=
EXTT9=
EXTT10=
EXTT11=
EXTT12=
EXTT13=
EXTT14=
EXTT15=
PLAYORDER=
